<svg width="24" height="24" viewBox="0 0 24 24" fill="none" xmlns="http://www.w3.org/2000/svg">
<g clip-path="url(#clip0_180_476)">
<path d="M20.745 5.4L7.633 5.378L6.995 1.902H6.973C6.885 1.396 6.456 1 5.917 1H2.1C1.495 1 1 1.495 1 2.1C1 2.705 1.495 3.2 2.1 3.2H5.004L5.4 5.4V5.455L5.543 6.126L7.237 14.585L7.303 14.915C7.545 15.773 8.403 16.4 9.426 16.4H18.974C19.986 16.4 20.844 15.773 21.097 14.915L21.163 14.596L23 5.4H20.745ZM19.359 12.429L19.139 13.518V13.397C19.139 13.947 18.655 14.398 18.039 14.398H10.35C9.833 14.398 9.393 14.068 9.283 13.628C9.272 13.606 9.272 13.584 9.272 13.551L9.25 13.474L9.041 12.429L8.062 7.578L20.316 7.6L19.359 12.429Z" fill="white"/>
<path d="M5.54264 6.12608H5.53164L5.41064 5.45508L5.54264 6.12608Z" fill="white"/>
<path d="M9.8001 23C11.0151 23 12.0001 22.015 12.0001 20.8C12.0001 19.5849 11.0151 18.6 9.8001 18.6C8.58507 18.6 7.6001 19.5849 7.6001 20.8C7.6001 22.015 8.58507 23 9.8001 23Z" fill="white"/>
<path d="M18.5999 23C19.8149 23 20.7999 22.015 20.7999 20.8C20.7999 19.5849 19.8149 18.6 18.5999 18.6C17.3849 18.6 16.3999 19.5849 16.3999 20.8C16.3999 22.015 17.3849 23 18.5999 23Z" fill="white"/>
</g>
<defs>
<clipPath id="clip0_180_476">
<rect width="24" height="24" fill="white"/>
</clipPath>
</defs>
</svg>
