<svg width="100" height="32" viewBox="0 0 100 32" fill="none" xmlns="http://www.w3.org/2000/svg">
<g clip-path="url(#clip0_130_304)">
<path d="M61.6393 27.9821C64.8482 19.1806 64.8482 20.4203 55.1503 20.4203C54.5799 20.2343 55.9348 19.2426 57.9314 18.8087C66.5596 17.3831 68.8414 18.4368 63.9211 26.3086C63.7073 26.3086 62.3714 28.7879 61.6393 27.9821Z" fill="#FF9900"/>
<mask id="mask0_130_304" style="mask-type:luminance" maskUnits="userSpaceOnUse" x="0" y="0" width="100" height="19">
<path d="M13.209 17.0812C13.3681 17.0149 13.4954 16.9153 13.4954 16.7827C13.4954 16.1192 12.6681 15.688 12.6681 12.4703V6.06811C12.6681 2.61822 11.1727 0.727417 7.19541 0.727417C4.74541 0.727417 1.59541 1.52355 1.59541 2.2865C1.59541 2.41919 1.62723 2.55188 1.69086 2.68456L2.32723 4.70805C2.35905 4.84074 2.48632 5.03977 2.64541 5.03977C3.05905 5.03977 4.80905 4.04462 6.59086 4.04462C8.59541 4.04462 8.84996 5.0066 8.84996 6.49934V7.52767C6.33632 7.52767 0.54541 7.52767 0.54541 13.1337C0.54541 16.2519 2.39086 18.2422 5.31814 18.2422C7.7045 18.2422 8.81814 16.9153 9.4545 16.2519C9.61359 17.0812 10.0909 18.2422 10.3772 18.2422C10.5045 18.2422 10.6636 18.1427 10.7909 18.1095L13.209 17.0812ZM8.84996 13.8967C8.46814 14.2948 7.64086 15.1572 6.46359 15.1572C5.2545 15.1572 4.36359 14.1952 4.36359 12.9015C4.36359 9.9824 8.0545 10.2478 8.84996 10.2478V13.8967ZM37.4368 5.96859C37.4368 3.08263 36.7368 0.727417 33.7459 0.727417C31.1368 0.727417 29.7686 2.15381 28.8141 3.01628C28.4323 1.62306 26.9368 0.727417 25.5686 0.727417C23.055 0.727417 21.655 2.15381 20.7004 3.01628C20.3504 1.4572 20.0959 0.727417 19.6822 0.727417C19.555 0.727417 19.3959 0.760588 19.205 0.826933L16.7868 1.65623C16.5641 1.72258 16.4368 1.85527 16.4368 2.02112C16.4368 2.78408 17.0413 2.5187 17.0413 7.19595V17.2139C17.0413 17.5788 17.105 17.6783 17.4868 17.6783H20.6368C21.0186 17.6783 21.0822 17.5788 21.0822 17.2139V5.57053C21.4959 5.17246 22.5459 4.21048 23.8822 4.21048C25.0913 4.21048 25.2186 5.73639 25.2186 6.99692V17.2139C25.2186 17.5788 25.2822 17.6783 25.6641 17.6783H28.8141C29.1959 17.6783 29.2595 17.5788 29.2595 17.2139V5.57053C29.6732 5.17246 30.7232 4.21048 32.0595 4.21048C33.2686 4.21048 33.3959 5.73639 33.3959 6.99692V17.2139C33.3959 17.5788 33.4595 17.6783 33.8413 17.6783H36.9913C37.3732 17.6783 37.4368 17.5788 37.4368 17.2139V5.96859ZM53.2925 17.0812C53.4516 17.0149 53.5788 16.9153 53.5788 16.7827C53.5788 16.1192 52.7516 15.688 52.7516 12.4703V6.06811C52.7516 2.61822 51.2561 0.727417 47.2788 0.727417C44.8288 0.727417 41.6788 1.52355 41.6788 2.2865C41.6788 2.41919 41.7107 2.55188 41.7743 2.68456L42.4107 4.70805C42.4425 4.84074 42.5698 5.03977 42.7288 5.03977C43.1425 5.03977 44.8925 4.04462 46.6743 4.04462C48.6788 4.04462 48.9334 5.0066 48.9334 6.49934V7.52767C46.4198 7.52767 40.6288 7.52767 40.6288 13.1337C40.6288 16.2519 42.4743 18.2422 45.4016 18.2422C47.7879 18.2422 48.9016 16.9153 49.5379 16.2519C49.697 17.0812 50.1743 18.2422 50.4607 18.2422C50.5879 18.2422 50.747 18.1427 50.8743 18.1095L53.2925 17.0812ZM48.9334 13.8967C48.5516 14.2948 47.7243 15.1572 46.547 15.1572C45.3379 15.1572 44.447 14.1952 44.447 12.9015C44.447 9.9824 48.1379 10.2478 48.9334 10.2478V13.8967ZM67.8795 14.8919C67.9113 14.8255 68.0068 14.6928 68.0068 14.527C68.0068 14.4274 68.0068 14.1952 67.4022 14.1952H60.1477L67.3386 4.21048V1.62306C67.3386 1.42403 67.0522 1.29134 66.7977 1.29134H56.7112C56.3612 1.29134 56.2658 1.42403 56.2658 1.75575V4.34316C56.2658 4.57537 56.3294 4.7744 56.4885 4.7744H62.9159L55.5976 14.8587V17.3466C55.5976 17.5456 55.7249 17.6783 55.9158 17.6783C55.9158 17.6783 59.1702 16.2205 61.3636 16.2519C63.4435 16.2816 66.5113 17.6783 66.5113 17.6783C66.6386 17.6783 66.8613 17.5124 66.9568 17.2471L67.8795 14.8919ZM76.6227 14.925C74.3954 14.925 74.0136 12.5698 74.0136 9.48482C74.0136 6.39983 74.4272 4.04462 76.6227 4.04462C78.8181 4.04462 79.2318 6.39983 79.2318 9.48482C79.2318 12.603 78.85 14.925 76.6227 14.925ZM83.5272 9.48482C83.5272 4.14413 80.8863 0.727417 76.6227 0.727417C72.3272 0.727417 69.7181 4.14413 69.7181 9.48482C69.7181 14.8255 72.3272 18.2422 76.6227 18.2422C80.9181 18.2422 83.5272 14.8255 83.5272 9.48482ZM99.7405 5.57053C99.7405 1.55672 97.3541 0.727417 95.6041 0.727417C93.0903 0.727417 91.6585 2.15381 90.7358 3.01628C90.3858 1.4572 90.1312 0.727417 89.7176 0.727417C89.5903 0.727417 89.4312 0.760588 89.2403 0.826933L86.8221 1.65623C86.5994 1.72258 86.4721 1.85527 86.4721 2.02112C86.4721 2.78408 87.0767 2.5187 87.0767 7.19595V17.2139C87.0767 17.5788 87.1403 17.6783 87.5221 17.6783H90.6721C91.0539 17.6783 91.1176 17.5788 91.1176 17.2139V5.57053C91.5312 5.17246 92.5812 4.21048 93.9176 4.21048C95.5407 4.21048 95.6998 5.73639 95.6998 6.99692V17.2139C95.6998 17.5788 95.7632 17.6783 96.1449 17.6783H99.2945C99.6771 17.6783 99.7405 17.5788 99.7405 17.2139V5.57053Z" fill="white"/>
</mask>
<g mask="url(#mask0_130_304)">
<path d="M13.209 17.0812C13.3681 17.0149 13.4954 16.9153 13.4954 16.7827C13.4954 16.1192 12.6681 15.688 12.6681 12.4703V6.06811C12.6681 2.61822 11.1727 0.727417 7.19541 0.727417C4.74541 0.727417 1.59541 1.52355 1.59541 2.2865C1.59541 2.41919 1.62723 2.55188 1.69086 2.68456L2.32723 4.70805C2.35905 4.84074 2.48632 5.03977 2.64541 5.03977C3.05905 5.03977 4.80905 4.04462 6.59086 4.04462C8.59541 4.04462 8.84996 5.0066 8.84996 6.49934V7.52767C6.33632 7.52767 0.54541 7.52767 0.54541 13.1337C0.54541 16.2519 2.39086 18.2422 5.31814 18.2422C7.7045 18.2422 8.81814 16.9153 9.4545 16.2519C9.61359 17.0812 10.0909 18.2422 10.3772 18.2422C10.5045 18.2422 10.6636 18.1427 10.7909 18.1095L13.209 17.0812ZM8.84996 13.8967C8.46814 14.2948 7.64086 15.1572 6.46359 15.1572C5.2545 15.1572 4.36359 14.1952 4.36359 12.9015C4.36359 9.9824 8.0545 10.2478 8.84996 10.2478V13.8967ZM37.4368 5.96859C37.4368 3.08263 36.7368 0.727417 33.7459 0.727417C31.1368 0.727417 29.7686 2.15381 28.8141 3.01628C28.4323 1.62306 26.9368 0.727417 25.5686 0.727417C23.055 0.727417 21.655 2.15381 20.7004 3.01628C20.3504 1.4572 20.0959 0.727417 19.6822 0.727417C19.555 0.727417 19.3959 0.760588 19.205 0.826933L16.7868 1.65623C16.5641 1.72258 16.4368 1.85527 16.4368 2.02112C16.4368 2.78408 17.0413 2.5187 17.0413 7.19595V17.2139C17.0413 17.5788 17.105 17.6783 17.4868 17.6783H20.6368C21.0186 17.6783 21.0822 17.5788 21.0822 17.2139V5.57053C21.4959 5.17246 22.5459 4.21048 23.8822 4.21048C25.0913 4.21048 25.2186 5.73639 25.2186 6.99692V17.2139C25.2186 17.5788 25.2822 17.6783 25.6641 17.6783H28.8141C29.1959 17.6783 29.2595 17.5788 29.2595 17.2139V5.57053C29.6732 5.17246 30.7232 4.21048 32.0595 4.21048C33.2686 4.21048 33.3959 5.73639 33.3959 6.99692V17.2139C33.3959 17.5788 33.4595 17.6783 33.8413 17.6783H36.9913C37.3732 17.6783 37.4368 17.5788 37.4368 17.2139V5.96859ZM53.2925 17.0812C53.4516 17.0149 53.5788 16.9153 53.5788 16.7827C53.5788 16.1192 52.7516 15.688 52.7516 12.4703V6.06811C52.7516 2.61822 51.2561 0.727417 47.2788 0.727417C44.8288 0.727417 41.6788 1.52355 41.6788 2.2865C41.6788 2.41919 41.7107 2.55188 41.7743 2.68456L42.4107 4.70805C42.4425 4.84074 42.5698 5.03977 42.7288 5.03977C43.1425 5.03977 44.8925 4.04462 46.6743 4.04462C48.6788 4.04462 48.9334 5.0066 48.9334 6.49934V7.52767C46.4198 7.52767 40.6288 7.52767 40.6288 13.1337C40.6288 16.2519 42.4743 18.2422 45.4016 18.2422C47.7879 18.2422 48.9016 16.9153 49.5379 16.2519C49.697 17.0812 50.1743 18.2422 50.4607 18.2422C50.5879 18.2422 50.747 18.1427 50.8743 18.1095L53.2925 17.0812ZM48.9334 13.8967C48.5516 14.2948 47.7243 15.1572 46.547 15.1572C45.3379 15.1572 44.447 14.1952 44.447 12.9015C44.447 9.9824 48.1379 10.2478 48.9334 10.2478V13.8967ZM67.8795 14.8919C67.9113 14.8255 68.0068 14.6928 68.0068 14.527C68.0068 14.4274 68.0068 14.1952 67.4022 14.1952H60.1477L67.3386 4.21048V1.62306C67.3386 1.42403 67.0522 1.29134 66.7977 1.29134H56.7112C56.3612 1.29134 56.2658 1.42403 56.2658 1.75575V4.34316C56.2658 4.57537 56.3294 4.7744 56.4885 4.7744H62.9159L55.5976 14.8587V17.3466C55.5976 17.5456 55.7249 17.6783 55.9158 17.6783C55.9158 17.6783 59.1702 16.2205 61.3636 16.2519C63.4435 16.2816 66.5113 17.6783 66.5113 17.6783C66.6386 17.6783 66.8613 17.5124 66.9568 17.2471L67.8795 14.8919ZM76.6227 14.925C74.3954 14.925 74.0136 12.5698 74.0136 9.48482C74.0136 6.39983 74.4272 4.04462 76.6227 4.04462C78.8181 4.04462 79.2318 6.39983 79.2318 9.48482C79.2318 12.603 78.85 14.925 76.6227 14.925ZM83.5272 9.48482C83.5272 4.14413 80.8863 0.727417 76.6227 0.727417C72.3272 0.727417 69.7181 4.14413 69.7181 9.48482C69.7181 14.8255 72.3272 18.2422 76.6227 18.2422C80.9181 18.2422 83.5272 14.8255 83.5272 9.48482ZM99.7405 5.57053C99.7405 1.55672 97.3541 0.727417 95.6041 0.727417C93.0903 0.727417 91.6585 2.15381 90.7358 3.01628C90.3858 1.4572 90.1312 0.727417 89.7176 0.727417C89.5903 0.727417 89.4312 0.760588 89.2403 0.826933L86.8221 1.65623C86.5994 1.72258 86.4721 1.85527 86.4721 2.02112C86.4721 2.78408 87.0767 2.5187 87.0767 7.19595V17.2139C87.0767 17.5788 87.1403 17.6783 87.5221 17.6783H90.6721C91.0539 17.6783 91.1176 17.5788 91.1176 17.2139V5.57053C91.5312 5.17246 92.5812 4.21048 93.9176 4.21048C95.5407 4.21048 95.6998 5.73639 95.6998 6.99692V17.2139C95.6998 17.5788 95.7632 17.6783 96.1449 17.6783H99.2945C99.6771 17.6783 99.7405 17.5788 99.7405 17.2139V5.57053Z" fill="white"/>
</g>
<path d="M60.2648 22.4984C43.1512 29.8289 28.1044 28.4326 12.1536 19.3567C11.5723 19.3567 11.4432 19.8454 12.0244 20.6134C25.8528 34.3913 48.9686 34.6719 60.9752 23.8248C61.4272 22.4984 60.2648 22.4984 60.2648 22.4984Z" fill="#FF9900"/>
</g>
<defs>
<clipPath id="clip0_130_304">
<rect width="100" height="31" fill="white" transform="translate(0 0.5)"/>
</clipPath>
</defs>
</svg>
