<svg width="25" height="26" viewBox="0 0 25 26" fill="none" xmlns="http://www.w3.org/2000/svg">
<g clip-path="url(#clip0_130_313)">
<rect y="0.5" width="25" height="25" rx="12.5" fill="white"/>
<path d="M-1.25 3.625H26.25V21.9583H-1.25V3.625Z" fill="white"/>
<path d="M2.96509 9.1897L5.50746 5.37613L6.14306 5.79986L3.60068 9.61343L2.96509 9.1897ZM3.91848 9.82529L6.46085 6.01173L7.09645 6.43546L4.55407 10.249L3.91848 9.82529ZM4.87187 10.4609L7.41425 6.64732L8.04984 7.07105L5.50746 10.8846L4.87187 10.4609Z" fill="black"/>
<path d="M16.9482 18.5117L19.4906 14.6982L20.1262 15.1219L17.5838 18.9354L16.9482 18.5117ZM17.9016 19.1473L20.444 15.3337L21.0796 15.7575L18.5372 19.571L17.9016 19.1473ZM18.855 19.7829L21.3974 15.9693L22.033 16.3931L19.4906 20.2066L18.855 19.7829Z" fill="black"/>
<path d="M17.9028 16.3932L21.0808 18.5118L17.9028 16.3932Z" fill="black"/>
<path d="M17.9028 16.3932L21.0808 18.5118" stroke="white" stroke-width="0.611111"/>
<path d="M8.6853 10.2491C9.35958 9.23773 10.408 8.53559 11.6 8.29719C12.792 8.0588 14.0298 8.30368 15.0412 8.97796C16.0527 9.65224 16.7548 10.7007 16.9932 11.8927C17.2316 13.0846 16.9867 14.3225 16.3124 15.3339L8.6853 10.2491Z" fill="#CD2E3A"/>
<path d="M8.68617 10.2491C8.01189 11.2605 7.76702 12.4983 8.00541 13.6903C8.2438 14.8823 8.94594 15.9307 9.95736 16.605C10.9688 17.2793 12.2066 17.5242 13.3986 17.2858C14.5906 17.0474 15.639 16.3452 16.3133 15.3338C16.6504 14.8281 16.7729 14.2092 16.6537 13.6132C16.5345 13.0172 16.1834 12.493 15.6777 12.1558C15.172 11.8187 14.5531 11.6963 13.9571 11.8155C13.3611 11.9347 12.8369 12.2857 12.4997 12.7914L8.68617 10.2491Z" fill="#0047A0"/>
<path d="M12.4993 12.7915C13.2014 11.7384 12.9168 10.3156 11.8637 9.61351C10.8106 8.91145 9.3878 9.19602 8.68574 10.2491C7.98368 11.3022 8.26825 12.725 9.32133 13.4271C10.3744 14.1291 11.7972 13.8446 12.4993 12.7915Z" fill="#CD2E3A"/>
<path d="M5.50757 20.2063L2.96519 16.3927L3.60079 15.969L6.14316 19.7826L5.50757 20.2063ZM6.46096 19.5707L3.91858 15.7571L4.55418 15.3334L7.09655 19.147L6.46096 19.5707ZM7.41435 18.9351L4.87197 15.1215L5.50757 14.6978L8.04994 18.5114L7.41435 18.9351Z" fill="black"/>
<path d="M19.491 10.8845L16.9486 7.07096L17.5842 6.64723L20.1266 10.4608L19.491 10.8845ZM20.4444 10.2489L17.902 6.43536L18.5376 6.01163L21.08 9.8252L20.4444 10.2489ZM21.3977 9.61333L18.8554 5.79977L19.491 5.37604L22.0333 9.1896L21.3977 9.61333Z" fill="black"/>
<path d="M5.03052 17.7699L5.98391 17.1343L5.03052 17.7699ZM17.9013 9.18938L19.0136 8.44785L17.9013 9.18938ZM19.967 7.81226L20.9204 7.17666L19.967 7.81226Z" fill="black"/>
<path d="M5.03052 17.7699L5.98391 17.1343M17.9013 9.18938L19.0136 8.44785M19.967 7.81226L20.9204 7.17666" stroke="white" stroke-width="0.611111"/>
</g>
<defs>
<clipPath id="clip0_130_313">
<rect y="0.5" width="25" height="25" rx="12.5" fill="white"/>
</clipPath>
</defs>
</svg>
